{"title":"The.Three.Musketeers.2011..BRRip.AC3.XviD-RLF","uid":7010782,"size":1555895792,"categoryP":"video","categoryS":"movies","magnet":"?xt=urn:btih:8a635cc4e8aae25550aa751f6b0f608a365d9066&amp;dn=The.Three.Musketeers.2011..BRRip.AC3.XviD-RLF&amp;tr=udp%3A%2F%2Ftracker.openbittorrent.com%3A80&amp;tr=udp%3A%2F%2Fopen.demonii.com%3A1337&amp;tr=udp%3A%2F%2Ftracker.coppersurfer.tk%3A6969&amp;tr=udp%3A%2F%2Fexodus.desync.com%3A6969","seeders":0,"leechers":1,"uploader":"rlf-rls","files":-1,"time":1328447106,"description":"The.Three.Musketeers.2011.BRRip.AC3.XviD-RLF\n~~~~~~~~~~~~~~~~~~~~~~~~~~~~~~~~~~~~~~~~~~~~                                            \nGENERAL:\n\nComplete name                    : rlf-musketeers-ac3.avi\nFormat                           : AVI\nFormat/Info                      : Audio Video Interleave\nFile size                        : 1.43 GiB\nDuration                         : 1h 50mn\nOverall bit rate                 : 1 866 Kbps\nLanguage                         : English\nSubs                             : Polish \nEncoder                          : Ralf\n\nVideo:\n\nFormat                           : MPEG-4 Visual\nFormat profile                   : Advanced Simple@L5\nFormat settings, BVOP            : 2\nFormat settings, QPel            : No\nFormat settings, GMC             : No warppoints\nFormat settings, Matrix          : H.263\nMuxing mode                      : Packed bitstream\nCodec ID                         : XVID\nDuration                         : 1h 50mn\nBit rate                         : 1 633 Kbps\nWidth                            : 688 pixels\nHeight                           : 288 pixels\nDisplay aspect ratio             : 2.35:1\nFrame rate                       : 23.976 fps\nColor space                      : YUV\nChroma subsampling               : 4:2:0\nBit depth                        : 8 bits\nScan type                        : Progressive\nBits/(Pixel*Frame)               : 0.344\nStream size                      : 1.25 GiB (87%)      \nStream size                      : Xvid 63\n\nAudio:\n\nFormat                           : AC-3\nFormat/Info                      : Audio Coding 3\nDuration                         : 1h 50mn\nBit rate mode                    : Constant\nBit rate                         : 224 Kbps\nChannel(s)                       : 6 channels\nChannel positions                : Front: L C R, Side: L R, LFE\nSampling rate                    : 48.0 KHz\nBit depth                        : 16 bits\nDelay relative to video          : 13ms\nStream size                      : 177 MiB (12%)\nAlignment                        : Split accross interleaves\nInterleave, duration             : 42 ms (1.00 video frame)\nInterleave, preload duration     : 500 ms\n\nMOVIE INFO:\n\nThe hot-headed young D'Artagnan along with three former legendary \nbut now down on their luck Musketeers must unite and defeat a beautiful \ndouble agent and her villainous employer from seizing the French throne \nand engulfing Europe in war.\n                                           &lt;a href=&quot;\nhttp://www.imdb.com/title/?tt1509767/&quot; rel=&quot;nofollow&quot; target=&quot;_NEW&quot;&gt;\nhttp://www.imdb.com/title/?tt1509767/&lt;/a&gt; &lt;a href=&quot;\nhttp://www.filmweb.pl/film/?Trzej+muszkieterowie+3D-2011-48?5468&quot; rel=&quot;nofollow&quot; target=&quot;_NEW&quot;&gt;\nhttp://www.filmweb.pl/film/?Trzej+muszkieterowie+3D-2011-48?5468&lt;/a&gt;\n\n                                               \nSOURCE:\n\nEHLE's 1080p.BluRay.x264 (THX)\n\nSCREENS:\n &lt;a href=&quot;\nhttp://www.postimg.com/60000/photo-59256.jpg&quot; rel=&quot;nofollow&quot; target=&quot;_NEW&quot;&gt;\nhttp://www.postimg.com/60000/photo-59256.jpg&lt;/a&gt; &lt;a href=&quot;\nhttp://www.postimg.com/60000/photo-59257.jpg&quot; rel=&quot;nofollow&quot; target=&quot;_NEW&quot;&gt;\nhttp://www.postimg.com/60000/photo-59257.jpg&lt;/a&gt; &lt;a href=&quot;\nhttp://www.postimg.com/60000/photo-59258.jpg&quot; rel=&quot;nofollow&quot; target=&quot;_NEW&quot;&gt;\nhttp://www.postimg.com/60000/photo-59258.jpg&lt;/a&gt; &lt;a href=&quot;\nhttp://www.postimg.com/60000/photo-59259.jpg&quot; rel=&quot;nofollow&quot; target=&quot;_NEW&quot;&gt;\nhttp://www.postimg.com/60000/photo-59259.jpg&lt;/a&gt; &lt;a href=&quot;\nhttp://www.postimg.com/60000/photo-59260.jpg&quot; rel=&quot;nofollow&quot; target=&quot;_NEW&quot;&gt;\nhttp://www.postimg.com/60000/photo-59260.jpg&lt;/a&gt;","torrent":{"xt":"urn:btih:8a635cc4e8aae25550aa751f6b0f608a365d9066","amp;dn":"The.Three.Musketeers.2011..BRRip.AC3.XviD-RLF","amp;tr":["udp%3A%2F%2Ftracker.openbittorrent.com%3A80","udp%3A%2F%2Fopen.demonii.com%3A1337","udp%3A%2F%2Ftracker.coppersurfer.tk%3A6969","udp%3A%2F%2Fexodus.desync.com%3A6969"],"infoHash":"8a635cc4e8aae25550aa751f6b0f608a365d9066","infoHashBuffer":{"type":"Buffer","data":[138,99,92,196,232,170,226,85,80,170,117,31,107,15,96,138,54,93,144,102]},"announce":[],"urlList":[]}}